<svg width="500" height="500" viewBox="0 0 500 500" fill="none" xmlns="http://www.w3.org/2000/svg">
<rect width="500" height="500" fill="#FAF7F0"/>
<circle cx="250" cy="250" r="202.5" stroke="#D8D2C2" stroke-width="15"/>
<circle cx="250" cy="250" r="217.5" stroke="#B17457" stroke-width="15"/>
<path d="M250 85C158.871 85 85 158.871 85 250C85 341.129 158.871 415 250 415C341.129 415 415 341.129 415 250C415 158.871 341.129 85 250 85ZM304.749 322.919C302.155 325.501 299.433 328.209 297.225 330.424C295.235 332.42 293.831 334.882 293.12 337.55C292.115 341.316 291.303 345.121 289.946 348.774L278.376 379.944C269.221 381.94 259.747 383.065 250 383.065V364.848C251.124 356.452 244.917 340.723 234.944 330.75C230.952 326.758 228.71 321.343 228.71 315.694V294.397C228.71 286.653 224.538 279.534 217.758 275.788C208.198 270.499 194.599 263.107 185.284 258.416C177.646 254.571 170.58 249.674 164.227 243.946L163.694 243.467C159.151 239.365 155.116 234.732 151.679 229.668C145.438 220.506 135.272 205.437 128.665 195.643C142.284 165.371 166.828 141.06 197.326 127.853L213.301 135.844C220.38 139.383 228.71 134.241 228.71 126.323V118.805C234.026 117.947 239.435 117.401 244.937 117.195L263.766 136.024C267.924 140.182 267.924 146.922 263.766 151.08L260.645 154.194L253.766 161.073C251.69 163.149 251.69 166.522 253.766 168.598L256.886 171.718C258.962 173.794 258.962 177.167 256.886 179.243L251.564 184.566C250.564 185.563 249.21 186.123 247.798 186.122H241.817C240.433 186.122 239.102 186.661 238.104 187.633L231.504 194.053C230.695 194.841 230.157 195.865 229.968 196.979C229.779 198.092 229.949 199.237 230.453 200.247L240.825 220.999C242.595 224.538 240.02 228.703 236.068 228.703H232.316C231.032 228.703 229.794 228.237 228.829 227.399L222.655 222.036C221.258 220.824 219.569 219.997 217.755 219.635C215.942 219.274 214.065 219.39 212.309 219.974L191.571 226.887C189.988 227.415 188.611 228.427 187.636 229.782C186.66 231.136 186.135 232.762 186.136 234.431C186.136 237.445 187.839 240.193 190.533 241.544L197.905 245.23C204.166 248.363 211.072 249.993 218.071 249.993C225.07 249.993 233.101 268.15 239.361 271.284H283.772C289.42 271.284 294.829 273.526 298.828 277.518L307.936 286.626C311.741 290.433 313.879 295.595 313.878 300.977C313.876 305.055 313.069 309.093 311.503 312.859C309.936 316.624 307.641 320.043 304.749 322.919ZM362.44 262.142C358.587 261.177 355.227 258.816 353.025 255.509L341.063 237.565C339.312 234.943 338.378 231.862 338.378 228.71C338.378 225.557 339.312 222.476 341.063 219.854L354.096 200.307C355.64 197.998 357.756 196.122 360.244 194.885L368.88 190.567C377.875 208.477 383.065 228.623 383.065 250C383.065 255.768 382.572 261.417 381.854 266.992L362.44 262.142Z" fill="#4A4947"/>
</svg>
